<mxfile host="app.diagrams.net" modified="2023-11-19T01:17:34.069Z" agent="Mozilla/5.0 (Macintosh; Intel Mac OS X 10_15_7) AppleWebKit/537.36 (KHTML, like Gecko) Chrome/119.0.0.0 Safari/537.36" etag="uazuSKBZpmXi5TSu3Zs3" version="22.1.3" type="device">
  <diagram name="Page-1" id="4IwfUndxH5qPUKxaAvdY">
    <mxGraphModel dx="1013" dy="550" grid="1" gridSize="10" guides="1" tooltips="1" connect="1" arrows="1" fold="1" page="1" pageScale="1" pageWidth="827" pageHeight="1169" math="0" shadow="0">
      <root>
        <mxCell id="0" />
        <mxCell id="1" parent="0" />
        <mxCell id="-8xNcQq_eCkQCsT7EWZl-10" style="edgeStyle=orthogonalEdgeStyle;rounded=0;orthogonalLoop=1;jettySize=auto;html=1;entryX=0;entryY=0.5;entryDx=0;entryDy=0;" edge="1" parent="1" source="-8xNcQq_eCkQCsT7EWZl-1" target="-8xNcQq_eCkQCsT7EWZl-2">
          <mxGeometry relative="1" as="geometry" />
        </mxCell>
        <mxCell id="-8xNcQq_eCkQCsT7EWZl-11" style="edgeStyle=orthogonalEdgeStyle;rounded=0;orthogonalLoop=1;jettySize=auto;html=1;" edge="1" parent="1" source="-8xNcQq_eCkQCsT7EWZl-1">
          <mxGeometry relative="1" as="geometry">
            <mxPoint x="580" y="140" as="targetPoint" />
          </mxGeometry>
        </mxCell>
        <mxCell id="-8xNcQq_eCkQCsT7EWZl-1" value="Client&amp;nbsp;" style="swimlane;whiteSpace=wrap;html=1;" vertex="1" parent="1">
          <mxGeometry x="60" y="40" width="200" height="200" as="geometry" />
        </mxCell>
        <mxCell id="-8xNcQq_eCkQCsT7EWZl-2" value="Subscriber&lt;br&gt;&amp;lt;&amp;lt;Interface&amp;gt;&amp;gt;&lt;br&gt;&lt;br&gt;&lt;br&gt;getNotification(String message)" style="rounded=0;whiteSpace=wrap;html=1;" vertex="1" parent="1">
          <mxGeometry x="360" y="150" width="180" height="110" as="geometry" />
        </mxCell>
        <mxCell id="-8xNcQq_eCkQCsT7EWZl-5" style="edgeStyle=orthogonalEdgeStyle;rounded=0;orthogonalLoop=1;jettySize=auto;html=1;entryX=0.25;entryY=1;entryDx=0;entryDy=0;" edge="1" parent="1" source="-8xNcQq_eCkQCsT7EWZl-3" target="-8xNcQq_eCkQCsT7EWZl-2">
          <mxGeometry relative="1" as="geometry" />
        </mxCell>
        <mxCell id="-8xNcQq_eCkQCsT7EWZl-3" value="User" style="swimlane;whiteSpace=wrap;html=1;" vertex="1" parent="1">
          <mxGeometry x="240" y="340" width="200" height="160" as="geometry" />
        </mxCell>
        <mxCell id="-8xNcQq_eCkQCsT7EWZl-6" style="edgeStyle=orthogonalEdgeStyle;rounded=0;orthogonalLoop=1;jettySize=auto;html=1;entryX=0.75;entryY=1;entryDx=0;entryDy=0;" edge="1" parent="1" source="-8xNcQq_eCkQCsT7EWZl-4" target="-8xNcQq_eCkQCsT7EWZl-2">
          <mxGeometry relative="1" as="geometry" />
        </mxCell>
        <mxCell id="-8xNcQq_eCkQCsT7EWZl-4" value="Admin" style="swimlane;whiteSpace=wrap;html=1;" vertex="1" parent="1">
          <mxGeometry x="460" y="340" width="200" height="160" as="geometry" />
        </mxCell>
        <mxCell id="-8xNcQq_eCkQCsT7EWZl-7" value="Observer" style="swimlane;whiteSpace=wrap;html=1;" vertex="1" parent="1">
          <mxGeometry x="580" y="30" width="200" height="200" as="geometry" />
        </mxCell>
        <mxCell id="-8xNcQq_eCkQCsT7EWZl-8" value="addSubscriber&lt;br&gt;removeSubscriber&lt;br&gt;notifyAll()" style="text;html=1;align=center;verticalAlign=middle;resizable=0;points=[];autosize=1;strokeColor=none;fillColor=none;" vertex="1" parent="-8xNcQq_eCkQCsT7EWZl-7">
          <mxGeometry x="10" y="50" width="120" height="60" as="geometry" />
        </mxCell>
        <mxCell id="-8xNcQq_eCkQCsT7EWZl-13" value="has-a" style="text;html=1;strokeColor=none;fillColor=none;align=center;verticalAlign=middle;whiteSpace=wrap;rounded=0;" vertex="1" parent="1">
          <mxGeometry x="330" y="110" width="60" height="30" as="geometry" />
        </mxCell>
        <mxCell id="-8xNcQq_eCkQCsT7EWZl-14" value="has-a" style="text;html=1;strokeColor=none;fillColor=none;align=center;verticalAlign=middle;whiteSpace=wrap;rounded=0;" vertex="1" parent="1">
          <mxGeometry x="280" y="160" width="60" height="30" as="geometry" />
        </mxCell>
        <mxCell id="-8xNcQq_eCkQCsT7EWZl-15" value="is-a" style="text;html=1;strokeColor=none;fillColor=none;align=center;verticalAlign=middle;whiteSpace=wrap;rounded=0;" vertex="1" parent="1">
          <mxGeometry x="330" y="280" width="60" height="30" as="geometry" />
        </mxCell>
        <mxCell id="-8xNcQq_eCkQCsT7EWZl-16" value="is-a" style="text;html=1;strokeColor=none;fillColor=none;align=center;verticalAlign=middle;whiteSpace=wrap;rounded=0;" vertex="1" parent="1">
          <mxGeometry x="510" y="280" width="60" height="30" as="geometry" />
        </mxCell>
      </root>
    </mxGraphModel>
  </diagram>
</mxfile>
